<svg width="3000" height="2000.0000000000002" xmlns="http://www.w3.org/2000/svg" xmlns:undefined="http://sodipodi.sourceforge.net/DTD/sodipodi-0.dtd" stroke="null" style="vector-effect: non-scaling-stroke;" version="1.1" preserveAspectRatio="none">


 <g stroke="null">
  <title stroke="null">Layer 1</title>
  <rect stroke="null" id="rect2" fill="#001220" height="2001.63671" width="3000.36397" y="-2.09097" x="0.2726"/>
  <g stroke="null" id="g20">
   <path stroke="null" id="path18" fill="#4FACF7" d="m3000.00132,759.04566c-125.09416,-8.44102 -250.18832,-16.88203 -377.92001,-37.28116c-127.73169,-20.39912 -258.1009,-52.52188 -328.56057,-118.4087c-70.45966,-65.88682 -80.63298,-165.53771 -104.37073,-238.45872c-23.73775,-73.15548 -60.66313,-119.58107 -131.49958,-176.08898c-70.83645,-56.74239 -175.58397,-123.5671 -280.33149,-190.62629l1222.68239,0l0,760.86385z"/>
  </g>
  <g stroke="null" id="g24">
   <path stroke="null" id="path22" fill="#4FACF7" d="m1.81818,1136.87303c113.40042,-3.9814 226.49186,-8.22823 309.91996,42.20284c83.11911,50.43107 136.26591,155.27461 189.4127,228.53237c53.45579,73.52319 106.91157,115.46061 188.17673,161.64485c80.95616,45.91882 189.72169,95.81903 246.88539,168.01509c57.1637,72.19606 62.72558,166.68796 68.28745,260.91443l-1002.68223,0l0,-861.30959z"/>
  </g>
 </g>
</svg>