<svg id="svg" xmlns="http://www.w3.org/2000/svg" xmlns:xlink="http://www.w3.org/1999/xlink" width="400" height="400" viewBox="0, 0, 400,400"><g id="svgg"><path id="path0" d="M193.305 10.748 C 188.073 12.619,197.085 4.649,94.695 97.955 C -7.902 191.448,-0.504 183.829,0.161 195.317 C 1.036 210.429,8.239 214.757,32.600 214.809 L 48.403 214.844 48.616 298.242 C 48.852 391.019,48.450 384.392,54.090 388.415 L 56.641 390.234 108.823 390.451 C 159.201 390.660,161.126 390.615,164.467 389.137 C 171.489 386.031,171.088 389.578,171.091 330.664 L 171.094 278.906 200.000 278.906 L 228.906 278.906 228.909 330.664 C 228.912 389.404,228.535 385.989,235.368 389.091 C 238.517 390.520,241.072 390.591,289.874 390.608 L 341.075 390.625 344.543 388.867 C 351.731 385.224,351.143 393.020,351.384 298.242 L 351.597 214.844 367.400 214.809 C 391.761 214.757,398.964 210.429,399.839 195.317 C 400.428 185.131,399.466 183.752,378.310 164.481 L 360.547 148.300 360.156 95.439 C 359.712 35.357,360.125 38.894,353.137 35.352 L 349.669 33.594 307.061 33.611 C 254.990 33.632,256.351 33.317,254.303 45.828 L 253.496 50.758 232.803 31.895 C 207.729 9.039,203.868 6.972,193.305 10.748 M229.719 62.305 C 263.865 93.473,264.941 94.136,273.204 89.095 C 277.689 86.359,278.425 83.850,278.765 70.117 L 279.070 57.813 307.504 57.813 L 335.938 57.813 335.938 107.497 C 335.938 151.441,336.081 157.423,337.176 159.277 C 337.857 160.430,345.555 167.867,354.282 175.804 L 370.150 190.234 352.318 190.625 C 323.829 191.249,327.003 179.785,326.744 283.008 L 326.535 366.406 289.852 366.406 L 253.168 366.406 252.951 315.039 C 252.708 257.341,253.016 260.292,246.847 256.668 C 242.617 254.183,157.383 254.183,153.153 256.668 C 146.984 260.292,147.292 257.341,147.049 315.039 L 146.832 366.406 110.148 366.406 L 73.465 366.406 73.256 283.008 C 72.997 179.787,76.168 191.249,47.696 190.625 L 29.876 190.234 114.352 113.142 C 160.814 70.741,199.279 36.024,199.830 35.994 C 200.381 35.963,213.831 47.803,229.719 62.305 " stroke="none" fill="#FCAF3C" fill-rule="evenodd"></path></g></svg>