<svg id="svg" xmlns="http://www.w3.org/2000/svg" xmlns:xlink="http://www.w3.org/1999/xlink" width="400" height="400" viewBox="0, 0, 400,400"><g id="svgg"><path id="path0" d="M26.563 1.785 C 14.289 6.001,4.842 15.809,1.245 28.071 C 0.126 31.887,0.000 46.954,0.000 177.456 L 0.000 322.598 1.684 327.099 C 5.607 337.584,15.091 343.736,28.312 344.373 L 35.938 344.740 35.938 364.558 L 35.938 384.375 20.028 384.375 L 4.119 384.375 2.060 386.435 C -0.876 389.371,-0.876 395.004,2.060 397.940 L 4.119 400.000 200.000 400.000 L 395.881 400.000 397.940 397.940 C 400.876 395.004,400.876 389.371,397.940 386.435 L 395.881 384.375 379.972 384.375 L 364.063 384.375 364.063 364.558 L 364.063 344.740 371.688 344.373 C 384.909 343.736,394.393 337.584,398.316 327.099 L 400.000 322.598 400.000 177.456 C 400.000 46.954,399.874 31.887,398.755 28.071 C 395.111 15.651,385.027 5.357,372.769 1.544 C 367.888 0.026,364.977 0.000,199.722 0.020 L 31.641 0.040 26.563 1.785 M369.531 18.039 C 380.296 23.109,383.624 29.296,384.200 45.311 L 384.594 56.250 200.000 56.250 L 15.406 56.250 15.796 45.429 C 16.440 27.511,22.525 18.679,35.782 16.421 C 37.801 16.077,112.754 15.846,202.344 15.906 L 365.234 16.016 369.531 18.039 M44.247 30.185 C 42.603 31.829,42.188 32.989,42.188 35.938 C 42.188 43.221,50.638 46.805,55.753 41.690 C 60.867 36.576,57.283 28.125,50.000 28.125 C 47.051 28.125,45.892 28.540,44.247 30.185 M75.497 30.185 C 72.561 33.121,72.561 38.754,75.497 41.690 C 78.433 44.626,84.067 44.626,87.003 41.690 C 89.939 38.754,89.939 33.121,87.003 30.185 C 85.358 28.540,84.199 28.125,81.250 28.125 C 78.301 28.125,77.142 28.540,75.497 30.185 M106.747 30.185 C 101.633 35.299,105.217 43.750,112.500 43.750 C 117.681 43.750,120.313 41.119,120.313 35.938 C 120.313 32.989,119.897 31.829,118.253 30.185 C 116.608 28.540,115.449 28.125,112.500 28.125 C 109.551 28.125,108.392 28.540,106.747 30.185 M167.724 30.316 C 166.098 32.014,165.625 33.279,165.625 35.938 C 165.625 38.596,166.098 39.861,167.724 41.559 L 169.824 43.750 261.758 43.750 L 353.693 43.750 355.753 41.690 C 358.689 38.754,358.689 33.121,355.753 30.185 L 353.693 28.125 261.758 28.125 L 169.824 28.125 167.724 30.316 M384.191 195.508 C 383.987 317.545,383.964 319.175,382.422 321.793 C 379.697 326.420,377.205 327.694,370.260 328.009 L 364.062 328.290 364.062 266.828 C 364.062 201.670,364.156 203.240,360.172 201.180 C 356.783 199.428,305.717 199.428,302.328 201.180 C 298.544 203.137,298.437 203.880,298.437 228.358 L 298.438 251.349 300.497 253.409 C 303.433 256.345,309.067 256.345,312.003 253.409 L 314.062 251.349 314.063 233.878 L 314.063 216.406 331.250 216.406 L 348.438 216.406 348.438 300.391 L 348.438 384.375 331.250 384.375 L 314.063 384.375 314.063 340.565 L 314.063 296.755 311.779 294.471 C 309.988 292.680,308.795 292.188,306.250 292.188 C 303.705 292.188,302.512 292.680,300.721 294.471 L 298.438 296.755 298.438 340.565 L 298.438 384.375 287.500 384.375 L 276.563 384.375 276.563 333.310 L 276.563 282.244 274.503 280.185 L 272.443 278.125 243.750 278.125 L 215.057 278.125 212.997 280.185 L 210.938 282.244 210.938 333.310 L 210.938 384.375 200.000 384.375 L 189.063 384.375 189.062 300.730 C 189.062 212.094,189.190 214.977,185.172 212.899 C 181.783 211.146,130.717 211.146,127.328 212.899 C 123.310 214.977,123.437 212.094,123.438 300.730 L 123.438 384.375 112.500 384.375 L 101.563 384.375 101.563 343.466 L 101.563 302.557 99.503 300.497 L 97.443 298.438 68.750 298.438 L 40.057 298.438 37.997 300.497 C 35.939 302.556,35.937 302.563,35.937 315.424 L 35.938 328.290 29.740 328.009 C 22.795 327.694,20.303 326.420,17.578 321.793 C 16.036 319.175,16.013 317.545,15.809 195.508 L 15.601 71.875 200.000 71.875 L 384.399 71.875 384.191 195.508 M37.997 100.497 C 35.113 103.381,35.062 109.068,37.896 111.901 C 40.533 114.538,42.958 114.827,62.500 114.827 C 82.042 114.827,84.467 114.538,87.104 111.901 C 89.938 109.068,89.887 103.381,87.003 100.497 L 84.943 98.438 62.500 98.438 L 40.057 98.438 37.997 100.497 M104.627 100.721 C 102.836 102.512,102.344 103.705,102.344 106.250 C 102.344 114.817,113.917 117.371,117.597 109.616 C 121.443 101.511,111.000 94.349,104.627 100.721 M147.935 106.331 C 130.014 108.601,118.086 129.373,125.498 145.406 L 127.166 149.016 104.403 171.736 L 81.641 194.457 76.953 192.848 C 49.589 183.459,27.656 218.829,47.891 239.714 C 68.787 261.281,105.805 237.836,95.017 209.868 L 93.549 206.063 116.528 183.085 L 139.506 160.106 142.898 161.303 C 147.570 162.952,157.244 162.799,161.719 161.007 L 165.234 159.599 191.882 186.130 L 218.530 212.662 216.949 215.901 C 208.165 233.906,222.226 255.078,242.969 255.078 C 263.173 255.078,276.253 237.030,269.903 217.913 L 268.560 213.870 294.933 187.489 C 321.016 161.398,321.333 161.115,323.734 161.804 C 346.576 168.355,367.466 142.911,356.696 121.656 C 346.164 100.871,316.336 100.871,305.804 121.656 C 302.455 128.265,302.407 140.428,305.706 146.827 L 307.896 151.076 290.471 168.559 C 280.888 178.174,269.272 189.568,264.659 193.879 L 256.271 201.717 252.606 200.468 C 247.805 198.832,237.852 198.825,233.950 200.455 L 230.991 201.692 204.067 174.767 L 177.143 147.843 178.611 144.039 C 186.114 124.587,169.084 103.653,147.935 106.331 M158.796 124.558 C 159.932 125.302,161.623 127.486,162.556 129.412 C 169.118 142.968,148.227 153.213,141.382 139.796 C 135.706 128.670,148.280 117.668,158.796 124.558 M337.312 124.215 C 347.474 130.411,343.129 146.088,331.250 146.088 C 319.371 146.088,315.026 130.411,325.188 124.215 C 328.531 122.176,333.969 122.176,337.312 124.215 M37.997 137.997 C 35.113 140.881,35.062 146.568,37.896 149.401 C 40.533 152.038,42.958 152.327,62.500 152.327 C 82.042 152.327,84.467 152.038,87.104 149.401 C 89.938 146.568,89.887 140.881,87.003 137.997 L 84.943 135.938 62.500 135.938 L 40.057 135.938 37.997 137.997 M72.969 208.901 C 78.885 211.374,81.691 218.496,79.077 224.406 C 75.142 233.300,64.324 234.395,58.426 226.496 C 51.519 217.244,62.150 204.381,72.969 208.901 M249.031 217.183 C 259.193 223.379,254.848 239.057,242.969 239.057 C 236.303 239.057,231.256 234.010,231.256 227.344 C 231.256 220.678,236.303 215.631,242.969 215.631 C 245.102 215.631,247.486 216.241,249.031 217.183 M173.438 306.250 L 173.438 384.375 156.250 384.375 L 139.063 384.375 139.063 306.250 L 139.063 228.125 156.250 228.125 L 173.438 228.125 173.438 306.250 M303.125 268.053 C 298.277 269.955,296.777 276.889,300.323 281.011 C 303.080 284.216,309.420 284.216,312.177 281.011 C 317.794 274.481,311.113 264.918,303.125 268.053 M260.938 339.063 L 260.938 384.375 243.750 384.375 L 226.563 384.375 226.563 339.063 L 226.563 293.750 243.750 293.750 L 260.938 293.750 260.938 339.063 M85.938 349.219 L 85.938 384.375 68.750 384.375 L 51.563 384.375 51.563 349.219 L 51.563 314.063 68.750 314.063 L 85.938 314.063 85.938 349.219 " stroke="none" fill="#A5C9CA" fill-rule="evenodd"></path></g></svg>