<?xml version='1.0' encoding='iso-8859-1'?>
<svg version="1.1" xmlns="http://www.w3.org/2000/svg" viewBox="0 0 463 463" xmlns:xlink="http://www.w3.org/1999/xlink" enable-background="new 0 0 463 463">
  <g>
    <g>
      <path d="m398.897,333.618l-73.17-18.254c-0.273-0.412-0.573-0.809-0.931-1.167l-23.992-24c-1.069-1.069-2.428-1.78-3.892-2.061 50.88-24.456 86.088-76.511 86.088-136.636 0-83.537-67.963-151.5-151.5-151.5s-151.5,67.963-151.5,151.5c0,60.125 35.208,112.18 86.089,136.637-1.464,0.281-2.823,0.991-3.892,2.061l-23.992,24c-0.349,0.349-0.643,0.735-0.911,1.135l-73.195,18.287c-31.017,7.754-48.099,26.791-48.099,53.604v52.276c0,12.958 10.542,23.5 23.5,23.5h384c12.958,0 23.5-10.542 23.5-23.5v-52.276c0-26.813-17.082-45.85-48.103-53.606zm-88.696-12.804c-5.75,10.374-19.851,35.742-33.063,59.501-0.031,0.056-0.096,0.172-0.279,0.216-0.212,0.056-0.365-0.048-0.414-0.081l-16.738-11.159c-0.011-0.007-0.021-0.014-0.032-0.021l-16.403-10.936 52.227-52.227 14.702,14.707zm-86.701,94.186h16c0.558,0 1.109-0.027 1.658-0.065l5.628,33.065h-30.572l5.628-33.065c0.549,0.038 1.1,0.065 1.658,0.065zm24.5-23.5c0,4.687-3.813,8.5-8.5,8.5h-16c-4.687,0-8.5-3.813-8.5-8.5v-11.986l16.5-11 16.5,11v11.986zm-153-240c0-75.267 61.233-136.5 136.5-136.5s136.5,61.233 136.5,136.5-61.233,136.5-136.5,136.5-136.5-61.233-136.5-136.5zm136.5,151.5c20.175,0 39.437-3.974 57.057-11.164l-57.057,57.057-57.057-57.057c17.62,7.19 36.882,11.164 57.057,11.164zm-63.999,3.107l52.227,52.227-16.405,10.937c-0.009,0.006-0.018,0.012-0.027,0.018l-16.739,11.16c-0.05,0.033-0.201,0.138-0.415,0.082-0.184-0.044-0.248-0.16-0.279-0.217-13.212-23.758-27.313-49.126-33.063-59.5l14.701-14.707zm-136.501,133.393v-52.276c0-19.819 12.36-32.958 36.736-39.052l72.972-18.232c4.324,7.808 13.291,23.943 32.043,57.665 2.09,3.759 5.683,6.494 9.856,7.505 1.196,0.29 2.414,0.433 3.629,0.433 3.044,0 6.063-0.896 8.638-2.611l5.125-3.417v1.986c0,6.862 2.957,13.045 7.663,17.346l-6.663,39.153h-97.999v-40.5c0-4.143-3.357-7.5-7.5-7.5s-7.5,3.357-7.5,7.5v40.5h-48.5c-4.687,0-8.5-3.813-8.5-8.5zm401,0c0,4.687-3.813,8.5-8.5,8.5h-48.5v-40.5c0-4.143-3.357-7.5-7.5-7.5s-7.5,3.357-7.5,7.5v40.5h-97.999l-6.665-39.154c4.706-4.3 7.663-10.484 7.663-17.346v-1.986l5.126,3.417c2.574,1.716 5.593,2.61 8.637,2.61 1.214,0 2.434-0.143 3.629-0.433 4.174-1.011 7.767-3.746 9.856-7.504 18.733-33.687 27.7-49.824 32.03-57.641l72.985,18.208c24.378,6.095 36.738,19.233 36.738,39.053v52.276z"/>
      <path d="m351,151.5c0-65.893-53.607-119.5-119.5-119.5s-119.5,53.607-119.5,119.5 53.607,119.5 119.5,119.5 119.5-53.607 119.5-119.5zm-223.728,7.5h16.228c4.143,0 7.5-3.357 7.5-7.5s-3.357-7.5-7.5-7.5h-16.228c3.681-51.656 45.073-93.047 96.728-96.728v16.228c0,4.143 3.357,7.5 7.5,7.5s7.5-3.357 7.5-7.5v-16.228c51.66,3.682 93.053,45.079 96.729,96.74-0.077-0.002-0.152-0.011-0.229-0.011h-16c-4.143,0-7.5,3.357-7.5,7.5s3.357,7.5 7.5,7.5h16c0.077,0 0.152-0.009 0.229-0.011-3.676,51.661-45.069,93.058-96.729,96.74v-16.23c0-4.143-3.357-7.5-7.5-7.5s-7.5,3.357-7.5,7.5v16.228c-51.656-3.681-93.047-45.072-96.728-96.728z"/>
      <path d="m221.061,172.546c3.147,1.567 6.691,2.454 10.439,2.454 10.336,0 19.128-6.71 22.266-16h33.734c4.143,0 7.5-3.357 7.5-7.5s-3.357-7.5-7.5-7.5h-33.734c-0.342-1.012-0.749-1.993-1.219-2.939l40.258-40.258c2.929-2.93 2.929-7.678 0-10.607-2.93-2.928-7.678-2.928-10.607,0l-40.258,40.258c-3.147-1.567-6.691-2.454-10.439-2.454-10.336,0-19.128,6.71-22.266,16h-9.735c-4.143,0-7.5,3.357-7.5,7.5s3.357,7.5 7.5,7.5h9.734c0.342,1.012 0.749,1.993 1.219,2.939l-13.11,13.11c-2.929,2.93-2.929,7.678 0,10.607 1.465,1.464 3.385,2.196 5.304,2.196s3.839-0.732 5.304-2.196l13.11-13.11zm10.439-29.546c4.687,0 8.5,3.813 8.5,8.5s-3.813,8.5-8.5,8.5-8.5-3.813-8.5-8.5 3.813-8.5 8.5-8.5z"/>
    </g>
  </g>
</svg>
